<svg width="160" height="56" viewBox="0 0 160 56" fill="none" xmlns="http://www.w3.org/2000/svg">
<path d="M37.8406 45.9677H14.6224C13.7874 45.9677 13.1082 45.2885 13.1082 44.4535V11.5465C13.1082 10.7115 13.7874 10.0323 14.6224 10.0323H37.8406C38.6755 10.0323 39.3548 10.7115 39.3548 11.5465V44.4531C39.3548 45.2885 38.6755 45.9677 37.8406 45.9677ZM14.6224 10.4364C14.0103 10.4364 13.5119 10.9344 13.5119 11.5469V44.4535C13.5119 45.0656 14.0103 45.564 14.6224 45.564H37.8406C38.4527 45.564 38.9511 45.0656 38.9511 44.4535V11.5465C38.9511 10.9344 38.4527 10.436 37.8406 10.436L14.6224 10.4364Z" fill="#77BBFF"/>
<path d="M26.2315 31.701C21.5556 31.701 17.7518 27.8972 17.7518 23.222C17.7518 18.5469 21.5556 14.7431 26.2315 14.7431C30.9074 14.7431 34.7112 18.5469 34.7112 23.222C34.7112 27.8972 30.9074 31.701 26.2315 31.701ZM26.2315 15.1468C21.7784 15.1468 18.1555 18.7694 18.1555 23.222C18.1555 27.6747 21.7784 31.2973 26.2315 31.2973C30.6846 31.2973 34.3075 27.6747 34.3075 23.222C34.3075 18.7694 30.6846 15.1468 26.2315 15.1468Z" fill="#77BBFF"/>
<path d="M34.5096 23.4239H17.9539C17.8424 23.4239 17.7518 23.3337 17.7518 23.2219C17.7518 23.1105 17.842 23.0198 17.9539 23.0198H34.5096C34.621 23.0198 34.7116 23.1101 34.7116 23.2219C34.7112 23.3333 34.621 23.4239 34.5096 23.4239Z" fill="#77BBFF"/>
<path d="M26.2315 31.7008C26.1201 31.7008 26.0294 31.6106 26.0294 31.4988V14.9446C26.0294 14.8332 26.1197 14.7426 26.2315 14.7426C26.3433 14.7426 26.4335 14.8328 26.4335 14.9446V31.4988C26.4335 31.6106 26.3433 31.7008 26.2315 31.7008Z" fill="#77BBFF"/>
<path d="M26.2315 31.7008C23.8676 31.7008 21.9449 27.897 21.9449 23.2219C21.9449 18.5468 23.8676 14.743 26.2315 14.743C28.5954 14.743 30.5181 18.5468 30.5181 23.2219C30.5181 27.897 28.5954 31.7008 26.2315 31.7008ZM26.2315 15.1467C24.0904 15.1467 22.3486 18.7692 22.3486 23.2219C22.3486 27.6746 24.0904 31.2971 26.2315 31.2971C28.3726 31.2971 30.1144 27.6746 30.1144 23.2219C30.1144 18.7692 28.3726 15.1467 26.2315 15.1467Z" fill="#77BBFF"/>
<path d="M26.2315 19.5574C24.0892 19.5574 22.0431 18.7552 20.4707 17.2981C20.4295 17.2598 20.406 17.2063 20.406 17.15C20.406 17.0937 20.4295 17.0402 20.4707 17.0018C22.0431 15.5452 24.0892 14.743 26.2315 14.743C28.3738 14.743 30.4198 15.5452 31.9923 17.0022C32.0334 17.0406 32.057 17.0941 32.057 17.1504C32.057 17.2067 32.0334 17.2602 31.9923 17.2985C30.4198 18.7552 28.3738 19.5574 26.2315 19.5574ZM20.9095 17.15C22.3838 18.4437 24.2653 19.1537 26.2315 19.1537C28.1977 19.1537 30.0792 18.4437 31.5535 17.15C30.0792 15.8566 28.1981 15.1467 26.2315 15.1467C24.2649 15.1467 22.3838 15.8566 20.9095 17.15Z" fill="#77BBFF"/>
<path d="M26.2315 31.7008C24.0892 31.7008 22.0431 30.8986 20.4707 29.4415C20.4295 29.4032 20.406 29.3497 20.406 29.2934C20.406 29.2371 20.4295 29.1836 20.4707 29.1452C22.0431 27.6886 24.0892 26.886 26.2315 26.886C28.3738 26.886 30.4198 27.6882 31.9923 29.1452C32.0334 29.1836 32.057 29.2371 32.057 29.2934C32.057 29.3497 32.0334 29.4032 31.9923 29.4415C30.4198 30.8986 28.3738 31.7008 26.2315 31.7008ZM20.9095 29.2938C22.3838 30.5871 24.2649 31.2971 26.2315 31.2971C28.1981 31.2971 30.0792 30.5871 31.5535 29.2938C30.0792 28 28.1981 27.2905 26.2315 27.2905C24.2649 27.2905 22.3838 28 20.9095 29.2938Z" fill="#77BBFF"/>
<path d="M34.5096 35.7386H17.9539C17.8424 35.7386 17.7518 35.6484 17.7518 35.5366C17.7518 35.4247 17.842 35.3345 17.9539 35.3345H34.5096C34.621 35.3345 34.7116 35.4247 34.7116 35.5366C34.7116 35.6484 34.621 35.7386 34.5096 35.7386Z" fill="#77BBFF"/>
<path d="M18.6602 39.776H17.9534C17.842 39.776 17.7514 39.6857 17.7514 39.5739C17.7514 39.4621 17.8416 39.3719 17.9534 39.3719H18.6602C18.7716 39.3719 18.8622 39.4621 18.8622 39.5739C18.8622 39.6857 18.772 39.776 18.6602 39.776Z" fill="#77BBFF"/>
<path d="M32.426 39.776H31.0496C30.9382 39.776 30.8475 39.6857 30.8475 39.5739C30.8475 39.4621 30.9378 39.3719 31.0496 39.3719H32.426C32.5374 39.3719 32.628 39.4621 32.628 39.5739C32.628 39.6857 32.5378 39.776 32.426 39.776ZM29.6732 39.776H28.2967C28.1853 39.776 28.0947 39.6857 28.0947 39.5739C28.0947 39.4621 28.1849 39.3719 28.2967 39.3719H29.6732C29.7846 39.3719 29.8752 39.4621 29.8752 39.5739C29.8752 39.6857 29.7846 39.776 29.6732 39.776ZM26.9199 39.776H25.5435C25.4321 39.776 25.3415 39.6857 25.3415 39.5739C25.3415 39.4621 25.4317 39.3719 25.5435 39.3719H26.9199C27.0313 39.3719 27.122 39.4621 27.122 39.5739C27.122 39.6857 27.0313 39.776 26.9199 39.776ZM24.1667 39.776H22.7903C22.6789 39.776 22.5882 39.6857 22.5882 39.5739C22.5882 39.4621 22.6785 39.3719 22.7903 39.3719H24.1667C24.2781 39.3719 24.3687 39.4621 24.3687 39.5739C24.3687 39.6857 24.2781 39.776 24.1667 39.776ZM21.4135 39.776H20.037C19.9256 39.776 19.835 39.6857 19.835 39.5739C19.835 39.4621 19.9252 39.3719 20.037 39.3719H21.4135C21.5249 39.3719 21.6155 39.4621 21.6155 39.5739C21.6155 39.6857 21.5253 39.776 21.4135 39.776Z" fill="#77BBFF"/>
<path d="M34.5096 39.776H33.8028C33.6914 39.776 33.6007 39.6857 33.6007 39.5739C33.6007 39.4621 33.691 39.3719 33.8028 39.3719H34.5096C34.621 39.3719 34.7116 39.4621 34.7116 39.5739C34.7116 39.6857 34.621 39.776 34.5096 39.776Z" fill="#77BBFF"/>
<path d="M47.4643 37.0846H39.1531C39.0417 37.0846 38.951 36.9944 38.951 36.8826V19.1174C38.951 19.006 39.0413 18.9153 39.1531 18.9153H47.4647C48.3368 18.9153 49.0464 19.6245 49.0464 20.4966V35.5034C49.046 36.3755 48.3364 37.0846 47.4643 37.0846ZM39.3548 36.6809H47.4643C48.1136 36.6809 48.6419 36.1527 48.6419 35.5034V20.4966C48.6419 19.8473 48.1136 19.319 47.4643 19.319H39.3548V36.6809Z" fill="#77BBFF"/>
<path d="M44.537 24.5009H39.1531C39.0417 24.5009 38.951 24.4106 38.951 24.2988C38.951 24.1874 39.0413 24.0968 39.1531 24.0968H44.537C44.6484 24.0968 44.739 24.187 44.739 24.2988C44.739 24.4106 44.6488 24.5009 44.537 24.5009Z" fill="#77BBFF"/>
<path d="M46.6904 22.4145H39.1531C39.0417 22.4145 38.951 22.3243 38.951 22.2125C38.951 22.101 39.0413 22.0104 39.1531 22.0104H46.6904C46.8019 22.0104 46.8925 22.1007 46.8925 22.2125C46.8925 22.3243 46.8019 22.4145 46.6904 22.4145Z" fill="#77BBFF"/>
<path d="M46.6904 31.2975H39.1531C39.0417 31.2975 38.951 31.2073 38.951 31.0955C38.951 30.984 39.0413 30.8934 39.1531 30.8934H46.6904C46.8019 30.8934 46.8925 30.9836 46.8925 31.0955C46.8925 31.2073 46.8019 31.2975 46.6904 31.2975Z" fill="#77BBFF"/>
<path d="M46.6904 33.1818H39.1531C39.0417 33.1818 38.951 33.0916 38.951 32.9798C38.951 32.8684 39.0413 32.7777 39.1531 32.7777H46.6904C46.8019 32.7777 46.8925 32.868 46.8925 32.9798C46.8925 33.0916 46.8019 33.1818 46.6904 33.1818Z" fill="#77BBFF"/>
<path d="M44.537 40.1801H39.1531C39.0417 40.1801 38.951 40.0899 38.951 39.9781V36.8826C38.951 36.7712 39.0413 36.6806 39.1531 36.6806H45.9166C46.028 36.6806 46.1186 36.7708 46.1186 36.8826V38.5985C46.1186 39.4709 45.4091 40.1801 44.537 40.1801ZM39.3548 39.7764H44.537C45.1863 39.7764 45.7145 39.2481 45.7145 38.5989V37.0847H39.3548V39.7764Z" fill="#77BBFF"/>
<path d="M57.0464 20.3551C57.0464 20.2295 57.0808 20.1293 57.1496 20.0545C57.2184 19.9798 57.3156 19.9424 57.4412 19.9424H63.3992C63.9256 19.9424 64.4221 20.0426 64.8887 20.243C65.3553 20.4434 65.7635 20.7185 66.1135 21.0685C66.4634 21.4184 66.7401 21.8282 66.9435 22.2978C67.1469 22.7673 67.2485 23.2713 67.2485 23.8097C67.2485 24.2583 67.1783 24.6756 67.0377 25.0614C66.8971 25.4472 66.6982 25.7927 66.441 26.0978C66.8717 26.4926 67.2127 26.9622 67.4639 27.5065C67.7151 28.0509 67.8408 28.6281 67.8408 29.2383C67.8408 29.7826 67.7361 30.2986 67.5267 30.7861C67.3173 31.2736 67.0347 31.7013 66.6788 32.0692C66.3228 32.4371 65.9071 32.7287 65.4315 32.9441C64.956 33.1594 64.455 33.2671 63.9286 33.2671H57.4412C57.3216 33.2671 57.2258 33.2357 57.1541 33.1729C57.0823 33.1101 57.0464 33.0129 57.0464 32.8813V20.3551ZM64.2785 29.1037C64.2785 28.9242 64.2441 28.7448 64.1753 28.5653C64.1065 28.3859 64.0108 28.2258 63.8882 28.0853C63.7656 27.9447 63.619 27.8295 63.4485 27.7398C63.278 27.6501 63.0941 27.6052 62.8967 27.6052H60.5279V30.6022H62.8967C63.0941 30.6022 63.2766 30.5603 63.444 30.4765C63.6115 30.3928 63.7581 30.2806 63.8837 30.14C64.0093 29.9995 64.1065 29.8395 64.1753 29.66C64.2441 29.4805 64.2785 29.2951 64.2785 29.1037ZM63.803 23.8904C63.803 23.711 63.7701 23.5435 63.7043 23.388C63.6385 23.2324 63.5457 23.0948 63.4261 22.9752C63.3065 22.8556 63.1629 22.7614 62.9954 22.6926C62.8279 22.6238 62.6455 22.5894 62.4481 22.5894H60.5279V25.1915H62.4211C62.6245 25.1915 62.8115 25.1601 62.9819 25.0973C63.1524 25.0345 63.2975 24.9448 63.4171 24.8281C63.5368 24.7115 63.631 24.5739 63.6998 24.4154C63.7686 24.2568 63.803 24.0819 63.803 23.8904ZM69.3392 19.1707C69.3392 18.9793 69.3871 18.8178 69.4828 18.6862C69.5785 18.5546 69.743 18.4888 69.9763 18.4888H72.1747C72.2345 18.4888 72.2973 18.5052 72.3631 18.5381C72.4289 18.571 72.4902 18.6174 72.547 18.6772C72.6039 18.737 72.6517 18.8088 72.6906 18.8925C72.7295 18.9763 72.7489 19.069 72.7489 19.1707V32.5762C72.7489 32.8035 72.6846 32.9755 72.556 33.0921C72.4274 33.2088 72.2614 33.2671 72.058 33.2671H69.9763C69.743 33.2671 69.5785 33.2088 69.4828 33.0921C69.3871 32.9755 69.3392 32.8035 69.3392 32.5762V19.1707ZM74.5525 27.5783C74.5525 27.028 74.6228 26.4986 74.7633 25.9901C74.9039 25.4816 75.1013 25.0106 75.3555 24.5769C75.6098 24.1432 75.9148 23.7484 76.2708 23.3924C76.6267 23.0365 77.023 22.7329 77.4597 22.4817C77.8964 22.2305 78.3674 22.036 78.8729 21.8985C79.3784 21.7609 79.9063 21.6921 80.4566 21.6921C81.2702 21.6921 82.0343 21.8431 82.7492 22.1452C83.464 22.4473 84.0861 22.863 84.6155 23.3924C85.1449 23.9218 85.5637 24.544 85.8717 25.2588C86.1798 25.9736 86.3339 26.7468 86.3339 27.5783C86.3339 28.1286 86.2636 28.6565 86.123 29.162C85.9824 29.6675 85.785 30.1386 85.5308 30.5752C85.2765 31.0119 84.9715 31.4082 84.6155 31.7641C84.2596 32.1201 83.8633 32.4251 83.4266 32.6794C82.99 32.9336 82.5219 33.1295 82.0224 33.2671C81.5229 33.4047 81.001 33.4735 80.4566 33.4735C79.9063 33.4735 79.3784 33.4047 78.8729 33.2671C78.3674 33.1295 77.8964 32.9336 77.4597 32.6794C77.023 32.4251 76.6267 32.1201 76.2708 31.7641C75.9148 31.4082 75.6098 31.0119 75.3555 30.5752C75.1013 30.1386 74.9039 29.6675 74.7633 29.162C74.6228 28.6565 74.5525 28.1286 74.5525 27.5783ZM77.8276 27.5783C77.8276 27.9731 77.8889 28.3425 78.0115 28.6864C78.1341 29.0304 78.3076 29.328 78.5319 29.5792C78.7563 29.8305 79.0284 30.0294 79.3485 30.1759C79.6685 30.3225 80.0289 30.3958 80.4297 30.3958C80.8185 30.3958 81.17 30.3225 81.484 30.1759C81.7981 30.0294 82.0643 29.8305 82.2826 29.5792C82.5009 29.328 82.6684 29.0304 82.7851 28.6864C82.9017 28.3425 82.9601 27.9731 82.9601 27.5783C82.9601 27.1954 82.9017 26.8306 82.7851 26.4836C82.6684 26.1366 82.5009 25.8316 82.2826 25.5684C82.0643 25.3052 81.7981 25.0973 81.484 24.9448C81.17 24.7922 80.8185 24.7159 80.4297 24.7159C80.0289 24.7159 79.6685 24.7922 79.3485 24.9448C79.0284 25.0973 78.7563 25.3052 78.5319 25.5684C78.3076 25.8316 78.1341 26.1366 78.0115 26.4836C77.8889 26.8306 77.8276 27.1954 77.8276 27.5783ZM96.3745 32.8723C96.4403 32.6689 96.4717 32.4371 96.4687 32.1769C96.4657 31.9167 96.4642 31.652 96.4642 31.3828C96.2908 31.5682 96.1143 31.7641 95.9348 31.9705C95.7554 32.1769 95.5565 32.3683 95.3381 32.5448C95.1198 32.7212 94.873 32.8663 94.5979 32.98C94.3227 33.0936 94.0027 33.1504 93.6378 33.1504C92.8302 33.1504 92.0825 33.0129 91.3946 32.7377C90.7066 32.4625 90.1114 32.0782 89.609 31.5847C89.1065 31.0912 88.7147 30.5005 88.4335 29.8125C88.1524 29.1246 88.0118 28.3679 88.0118 27.5424C88.0118 26.7229 88.1524 25.9557 88.4335 25.2409C88.7147 24.526 89.1065 23.9039 89.609 23.3745C90.1114 22.8451 90.7066 22.4294 91.3946 22.1273C92.0825 21.8252 92.8302 21.6741 93.6378 21.6741C94.0087 21.6741 94.3421 21.731 94.6382 21.8446C94.9344 21.9583 95.2035 22.1048 95.4458 22.2843C95.6881 22.4638 95.9094 22.6656 96.1098 22.89C96.3102 23.1143 96.5001 23.3371 96.6796 23.5584L97.0205 22.4907C97.0564 22.389 97.0893 22.2963 97.1192 22.2125C97.1492 22.1288 97.188 22.0585 97.2359 22.0017C97.2838 21.9448 97.3451 21.9015 97.4198 21.8715C97.4946 21.8416 97.5918 21.8267 97.7115 21.8267H99.0484C99.1142 21.8267 99.1905 21.8357 99.2772 21.8536C99.364 21.8715 99.4402 21.9134 99.506 21.9792C99.5898 22.045 99.6526 22.1168 99.6945 22.1946C99.7363 22.2723 99.7573 22.371 99.7573 22.4907V31.6251C99.7573 32.5582 99.6047 33.3897 99.2997 34.1195C98.9946 34.8493 98.5773 35.4654 98.0479 35.9679C97.5185 36.4704 96.8919 36.8533 96.1681 37.1165C95.4443 37.3797 94.6667 37.5113 93.8352 37.5113C93.5122 37.5113 93.1652 37.4828 92.7943 37.426C92.4234 37.3692 92.0541 37.284 91.6862 37.1703C91.3183 37.0566 90.9624 36.9116 90.6184 36.7351C90.2744 36.5586 89.9709 36.3538 89.7077 36.1205C89.6359 36.0666 89.5731 36.0038 89.5192 35.932C89.4654 35.8603 89.428 35.7795 89.4071 35.6898C89.3861 35.6 89.3861 35.5028 89.4071 35.3982C89.428 35.2935 89.4774 35.1843 89.5551 35.0706L90.4075 33.8952C90.5631 33.7277 90.7096 33.638 90.8472 33.626C90.9848 33.614 91.1583 33.6858 91.3676 33.8414C91.5172 33.9849 91.6892 34.1001 91.8836 34.1868C92.078 34.2736 92.2784 34.3423 92.4848 34.3932C92.6911 34.444 92.8945 34.4769 93.0949 34.4919C93.2953 34.5068 93.4763 34.5143 93.6378 34.5143C93.907 34.5143 94.1881 34.4784 94.4812 34.4066C94.7743 34.3349 95.048 34.2287 95.3022 34.0881C95.5565 33.9475 95.7808 33.7756 95.9752 33.5722C96.1696 33.3688 96.3027 33.1355 96.3745 32.8723ZM91.242 27.5424C91.242 27.9432 91.3033 28.3156 91.426 28.6595C91.5486 29.0035 91.7236 29.3011 91.9509 29.5523C92.1782 29.8036 92.4519 30.001 92.7719 30.1445C93.0919 30.2881 93.4464 30.3599 93.8352 30.3599C94.218 30.3599 94.5784 30.2926 94.9164 30.158C95.2544 30.0234 95.549 29.8365 95.8002 29.5972C96.0515 29.3579 96.2534 29.0768 96.4059 28.7537C96.5584 28.4307 96.6437 28.0808 96.6616 27.7039V27.4078C96.6437 27.0429 96.5584 26.6975 96.4059 26.3714C96.2534 26.0454 96.0515 25.7583 95.8002 25.51C95.549 25.2618 95.2544 25.0644 94.9164 24.9178C94.5784 24.7713 94.218 24.698 93.8352 24.698C93.4464 24.698 93.0919 24.7743 92.7719 24.9268C92.4519 25.0793 92.1782 25.2842 91.9509 25.5414C91.7236 25.7987 91.5486 26.1008 91.426 26.4477C91.3033 26.7947 91.242 27.1596 91.242 27.5424ZM103.957 28.9691C104.058 29.0528 104.188 29.165 104.347 29.3056C104.505 29.4461 104.686 29.5852 104.89 29.7228C105.195 29.9262 105.497 30.0847 105.796 30.1984C106.095 30.312 106.409 30.3689 106.738 30.3689C107.043 30.3689 107.299 30.3345 107.505 30.2657C107.712 30.1969 107.875 30.1057 107.994 29.992C108.114 29.8783 108.199 29.7467 108.25 29.5972C108.301 29.4476 108.326 29.2891 108.326 29.1216C108.326 28.9362 108.256 28.7702 108.116 28.6236C107.975 28.4771 107.803 28.347 107.6 28.2333C107.396 28.1197 107.184 28.0224 106.962 27.9417C106.741 27.8609 106.55 27.7936 106.388 27.7398C105.67 27.4886 105.042 27.2179 104.504 26.9278C103.966 26.6376 103.517 26.3146 103.158 25.9587C102.799 25.6028 102.53 25.2109 102.35 24.7832C102.171 24.3555 102.081 23.8785 102.081 23.3521C102.081 22.7957 102.193 22.2903 102.418 21.8357C102.642 21.381 102.962 20.9922 103.378 20.6692C103.794 20.3462 104.295 20.0964 104.881 19.9199C105.467 19.7435 106.122 19.6552 106.846 19.6552C107.39 19.6552 107.912 19.7166 108.412 19.8392C108.911 19.9618 109.403 20.1577 109.888 20.4269C110.091 20.5465 110.284 20.6707 110.466 20.7993C110.649 20.9279 110.809 21.052 110.946 21.1717C111.084 21.2913 111.193 21.405 111.274 21.5126C111.355 21.6203 111.395 21.713 111.395 21.7908C111.395 21.8686 111.376 21.9403 111.337 22.0061C111.298 22.0719 111.24 22.1467 111.162 22.2305L109.789 23.693C109.687 23.7947 109.586 23.8456 109.484 23.8456C109.4 23.8456 109.324 23.8216 109.255 23.7738C109.186 23.7259 109.11 23.6661 109.026 23.5943L108.945 23.5226C108.826 23.4209 108.693 23.3162 108.546 23.2085C108.4 23.1008 108.243 23.0036 108.075 22.9169C107.908 22.8301 107.731 22.7584 107.546 22.7015C107.36 22.6447 107.172 22.6163 106.98 22.6163C106.783 22.6163 106.598 22.6327 106.424 22.6656C106.251 22.6985 106.098 22.7509 105.967 22.8227C105.835 22.8945 105.73 22.9887 105.652 23.1053C105.575 23.222 105.536 23.364 105.536 23.5315C105.536 23.699 105.578 23.8441 105.661 23.9667C105.745 24.0893 105.871 24.203 106.038 24.3077C106.206 24.4124 106.414 24.5111 106.662 24.6038C106.91 24.6965 107.199 24.7967 107.528 24.9044C108.162 25.1137 108.747 25.3336 109.282 25.5639C109.817 25.7942 110.279 26.0664 110.668 26.3804C111.057 26.6945 111.361 27.0698 111.579 27.5065C111.797 27.9432 111.907 28.4726 111.907 29.0947C111.907 29.7527 111.772 30.3494 111.503 30.8848C111.234 31.4202 110.864 31.8763 110.395 32.2532C109.925 32.63 109.373 32.9216 108.739 33.128C108.105 33.3344 107.423 33.4376 106.693 33.4376C106.005 33.4376 105.329 33.3149 104.665 33.0697C104.001 32.8244 103.382 32.4954 102.808 32.0827C102.569 31.9092 102.367 31.7387 102.202 31.5712C102.038 31.4037 101.908 31.2691 101.812 31.1674L101.785 31.1405C101.779 31.1286 101.773 31.1211 101.767 31.1181C101.761 31.1151 101.755 31.1106 101.749 31.1046C101.743 31.0927 101.737 31.0852 101.731 31.0822C101.725 31.0792 101.719 31.0747 101.713 31.0687C101.576 30.9192 101.507 30.7996 101.507 30.7098C101.507 30.6081 101.576 30.4945 101.713 30.3689L103.266 28.8883C103.391 28.7986 103.493 28.7537 103.571 28.7537C103.625 28.7537 103.681 28.7717 103.741 28.8076C103.801 28.8435 103.873 28.8973 103.957 28.9691ZM113.916 21.9792C113.994 21.9134 114.075 21.8715 114.159 21.8536C114.242 21.8357 114.323 21.8267 114.401 21.8267H115.756C115.87 21.8267 115.964 21.8446 116.039 21.8805C116.113 21.9164 116.175 21.9658 116.223 22.0286C116.27 22.0914 116.311 22.1632 116.344 22.2439C116.377 22.3247 116.408 22.4129 116.438 22.5086L116.815 23.5943C116.982 23.379 117.151 23.1592 117.322 22.9348C117.492 22.7105 117.694 22.5071 117.927 22.3247C118.161 22.1422 118.439 21.9912 118.762 21.8715C119.085 21.7519 119.48 21.6921 119.946 21.6921C120.766 21.6921 121.521 21.8431 122.212 22.1452C122.903 22.4473 123.498 22.863 123.997 23.3924C124.497 23.9218 124.887 24.544 125.168 25.2588C125.45 25.9736 125.59 26.7468 125.59 27.5783C125.59 28.4038 125.45 29.1755 125.168 29.8933C124.887 30.6111 124.497 31.2347 123.997 31.7641C123.498 32.2935 122.903 32.7108 122.212 33.0159C121.521 33.3209 120.766 33.4735 119.946 33.4735C119.557 33.4735 119.222 33.4271 118.941 33.3344C118.66 33.2417 118.41 33.1205 118.192 32.971C117.974 32.8214 117.781 32.6569 117.613 32.4775C117.446 32.298 117.281 32.1186 117.12 31.9391V36.1205C117.12 36.2999 117.066 36.4525 116.958 36.5781C116.851 36.7037 116.683 36.7665 116.456 36.7665H114.401C114.329 36.7665 114.251 36.7516 114.168 36.7217C114.084 36.6917 114.006 36.6499 113.934 36.596C113.863 36.5422 113.803 36.4749 113.755 36.3941C113.707 36.3134 113.683 36.2222 113.683 36.1205V22.4907C113.683 22.371 113.706 22.2723 113.75 22.1946C113.795 22.1168 113.851 22.045 113.916 21.9792ZM122.297 27.5783C122.297 27.1954 122.234 26.832 122.109 26.4881C121.983 26.1441 121.807 25.8435 121.579 25.5863C121.352 25.3291 121.08 25.1257 120.763 24.9762C120.446 24.8266 120.096 24.7518 119.713 24.7518C119.336 24.7518 118.979 24.8221 118.641 24.9627C118.303 25.1033 118.007 25.2947 117.752 25.537C117.498 25.7792 117.292 26.0649 117.133 26.3939C116.975 26.7229 116.886 27.0728 116.869 27.4437V27.5783C116.869 27.9731 116.943 28.344 117.093 28.6909C117.242 29.0379 117.446 29.3385 117.703 29.5927C117.96 29.8469 118.262 30.0488 118.609 30.1984C118.956 30.3479 119.324 30.4227 119.713 30.4227C120.096 30.4227 120.446 30.3479 120.763 30.1984C121.08 30.0488 121.352 29.8469 121.579 29.5927C121.807 29.3385 121.983 29.0379 122.109 28.6909C122.234 28.344 122.297 27.9731 122.297 27.5783ZM127.035 27.5783C127.035 27.028 127.105 26.4986 127.246 25.9901C127.386 25.4816 127.584 25.0106 127.838 24.5769C128.092 24.1432 128.397 23.7484 128.753 23.3924C129.109 23.0365 129.505 22.7329 129.942 22.4817C130.379 22.2305 130.85 22.036 131.355 21.8985C131.861 21.7609 132.389 21.6921 132.939 21.6921C133.753 21.6921 134.517 21.8431 135.232 22.1452C135.946 22.4473 136.568 22.863 137.098 23.3924C137.627 23.9218 138.046 24.544 138.354 25.2588C138.662 25.9736 138.816 26.7468 138.816 27.5783C138.816 28.1286 138.746 28.6565 138.605 29.162C138.465 29.6675 138.267 30.1386 138.013 30.5752C137.759 31.0119 137.454 31.4082 137.098 31.7641C136.742 32.1201 136.346 32.4251 135.909 32.6794C135.472 32.9336 135.004 33.1295 134.505 33.2671C134.005 33.4047 133.483 33.4735 132.939 33.4735C132.389 33.4735 131.861 33.4047 131.355 33.2671C130.85 33.1295 130.379 32.9336 129.942 32.6794C129.505 32.4251 129.109 32.1201 128.753 31.7641C128.397 31.4082 128.092 31.0119 127.838 30.5752C127.584 30.1386 127.386 29.6675 127.246 29.162C127.105 28.6565 127.035 28.1286 127.035 27.5783ZM130.31 27.5783C130.31 27.9731 130.371 28.3425 130.494 28.6864C130.616 29.0304 130.79 29.328 131.014 29.5792C131.239 29.8305 131.511 30.0294 131.831 30.1759C132.151 30.3225 132.511 30.3958 132.912 30.3958C133.301 30.3958 133.652 30.3225 133.966 30.1759C134.28 30.0294 134.547 29.8305 134.765 29.5792C134.983 29.328 135.151 29.0304 135.267 28.6864C135.384 28.3425 135.442 27.9731 135.442 27.5783C135.442 27.1954 135.384 26.8306 135.267 26.4836C135.151 26.1366 134.983 25.8316 134.765 25.5684C134.547 25.3052 134.28 25.0973 133.966 24.9448C133.652 24.7922 133.301 24.7159 132.912 24.7159C132.511 24.7159 132.151 24.7922 131.831 24.9448C131.511 25.0973 131.239 25.3052 131.014 25.5684C130.79 25.8316 130.616 26.1366 130.494 26.4836C130.371 26.8306 130.31 27.1954 130.31 27.5783ZM141.293 20.0949C141.293 19.9095 141.354 19.7704 141.477 19.6777C141.599 19.585 141.774 19.4967 142.002 19.413L144.038 18.7041C144.068 18.6981 144.097 18.6951 144.124 18.6951H144.2C144.421 18.6951 144.569 18.7595 144.644 18.8881C144.719 19.0167 144.756 19.1857 144.756 19.395L144.747 22.2215H146.246C146.437 22.2215 146.593 22.2783 146.712 22.392C146.832 22.5056 146.892 22.6761 146.892 22.9034V24.6352C146.892 24.8864 146.832 25.0704 146.712 25.187C146.593 25.3037 146.437 25.362 146.246 25.362H144.747L144.756 32.5762C144.756 32.8035 144.69 32.9755 144.559 33.0921C144.427 33.2088 144.245 33.2671 144.011 33.2671H141.984C141.523 33.2671 141.293 33.0368 141.293 32.5762L141.284 25.362H140.629C140.168 25.362 139.938 25.1197 139.938 24.6352V22.9034C139.938 22.4488 140.168 22.2215 140.629 22.2215H141.284L141.293 20.0949Z" fill="#77BBFF"/>
</svg>
