<svg width="14" height="12" viewBox="0 0 14 12" fill="none" xmlns="http://www.w3.org/2000/svg">
<path d="M11.9112 1.56111C11.6275 1.27722 11.2906 1.05202 10.9198 0.898377C10.549 0.744731 10.1515 0.665649 9.75012 0.665649C9.34874 0.665649 8.95129 0.744731 8.58048 0.898377C8.20967 1.05202 7.87276 1.27722 7.58901 1.56111L7.00012 2.15L6.41123 1.56111C5.83807 0.987946 5.06069 0.665947 4.25012 0.665947C3.43955 0.665947 2.66217 0.987946 2.08901 1.56111C1.51585 2.13427 1.19385 2.91165 1.19385 3.72222C1.19385 4.53279 1.51585 5.31017 2.08901 5.88333L7.00012 10.7944L11.9112 5.88333C12.1951 5.59958 12.4203 5.26267 12.574 4.89186C12.7276 4.52105 12.8067 4.1236 12.8067 3.72222C12.8067 3.32084 12.7276 2.92339 12.574 2.55258C12.4203 2.18177 12.1951 1.84486 11.9112 1.56111Z" stroke="white" stroke-width="0.666667" stroke-linecap="round" stroke-linejoin="round"/>
</svg>
