<svg width="9" height="10" viewBox="0 0 9 10" fill="none" xmlns="http://www.w3.org/2000/svg">
<path fill-rule="evenodd" clip-rule="evenodd" d="M6.59917 1.15497C6.51575 1.02169 6.39286 0.917728 6.24759 0.857561C6.10232 0.797394 5.94191 0.784015 5.78868 0.819287L4.70118 1.06909C4.58973 1.0947 4.47392 1.0947 4.36247 1.06909L3.27497 0.819287C3.12174 0.784015 2.96133 0.797394 2.81606 0.857561C2.6708 0.917728 2.5479 1.02169 2.46449 1.15497L1.87174 2.10094C1.81126 2.19772 1.72961 2.27937 1.63283 2.34046L0.686864 2.9332C0.55381 3.01654 0.450002 3.13924 0.389848 3.28426C0.329694 3.42928 0.316179 3.58942 0.351178 3.74247L0.600977 4.83118C0.6265 4.94244 0.6265 5.05803 0.600977 5.16929L0.351178 6.2574C0.316043 6.41053 0.32949 6.57082 0.38965 6.71596C0.449811 6.8611 0.553695 6.9839 0.686864 7.06728L1.63283 7.66002C1.72961 7.7205 1.81126 7.80215 1.87235 7.89893L2.46509 8.8449C2.63566 9.11768 2.96106 9.25256 3.27497 9.18058L4.36247 8.93079C4.47392 8.90517 4.58973 8.90517 4.70118 8.93079L5.78929 9.18058C5.94243 9.21572 6.10271 9.20227 6.24785 9.14211C6.39299 9.08195 6.51579 8.97807 6.59917 8.8449L7.19191 7.89893C7.25239 7.80215 7.33405 7.7205 7.43082 7.66002L8.37739 7.06728C8.51057 6.98378 8.61441 6.86085 8.67446 6.71558C8.73452 6.57032 8.74781 6.40996 8.71248 6.25679L8.46328 5.16929C8.43767 5.05784 8.43767 4.94203 8.46328 4.83058L8.71308 3.74247C8.74827 3.5894 8.73492 3.42916 8.67487 3.28403C8.61482 3.13889 8.51106 3.01606 8.378 2.9326L7.43143 2.33985C7.33479 2.27926 7.25311 2.19758 7.19251 2.10094L6.59917 1.15497ZM6.29493 3.65114C6.33234 3.58235 6.34161 3.50173 6.32079 3.42625C6.29997 3.35076 6.25068 3.2863 6.18329 3.24641C6.1159 3.20653 6.03567 3.19434 5.95948 3.2124C5.88329 3.23047 5.81708 3.27739 5.77477 3.34328L4.19312 6.0203L3.23808 5.10578C3.20974 5.07669 3.17584 5.0536 3.13839 5.0379C3.10094 5.02219 3.06072 5.01419 3.02011 5.01436C2.9795 5.01454 2.93934 5.02289 2.90203 5.03893C2.86472 5.05496 2.83102 5.07834 2.80294 5.10768C2.77487 5.13702 2.75298 5.17171 2.7386 5.20969C2.72422 5.24766 2.71764 5.28815 2.71924 5.32873C2.72085 5.3693 2.73061 5.40914 2.74794 5.44587C2.76527 5.48259 2.78983 5.51545 2.82013 5.54248L4.05037 6.72131C4.0833 6.75279 4.12292 6.77643 4.16626 6.79046C4.2096 6.80448 4.25555 6.80854 4.30068 6.80231C4.34581 6.79609 4.38895 6.77975 4.42688 6.75452C4.46481 6.72929 4.49655 6.69581 4.51973 6.65659L6.29493 3.65114Z" fill="#2C95FF"/>
</svg>
