<svg width="211" height="210" viewBox="0 0 211 210" fill="none" xmlns="http://www.w3.org/2000/svg">
<path d="M210.5 105C210.5 47.0101 163.49 0 105.5 0C47.5101 0 0.5 47.0101 0.5 105C0.5 162.99 47.5101 210 105.5 210C163.49 210 210.5 162.99 210.5 105Z" fill="#77BBFF"/>
<path d="M119.05 111.994H72.534C70.861 111.994 69.5 110.634 69.5 108.961V43.034C69.5 41.361 70.861 40 72.534 40H119.05C120.723 40 122.084 41.361 122.084 43.034V108.96C122.084 110.634 120.723 111.994 119.05 111.994ZM72.534 40.81C71.307 40.81 70.309 41.807 70.309 43.034V108.961C70.309 110.187 71.307 111.186 72.534 111.186H119.05C120.276 111.186 121.275 110.187 121.275 108.961V43.034C121.275 41.807 120.276 40.809 119.05 40.809L72.534 40.81Z" fill="#111111"/>
<path d="M95.792 83.412C86.424 83.412 78.803 75.791 78.803 66.425C78.803 57.058 86.424 49.438 95.792 49.438C105.16 49.438 112.781 57.058 112.781 66.425C112.781 75.791 105.16 83.412 95.792 83.412ZM95.792 50.246C86.87 50.246 79.612 57.504 79.612 66.425C79.612 75.345 86.87 82.603 95.792 82.603C104.713 82.603 111.972 75.345 111.972 66.425C111.972 57.504 104.713 50.246 95.792 50.246Z" fill="#111111"/>
<path d="M112.377 66.829H79.208C78.985 66.829 78.803 66.649 78.803 66.425C78.803 66.201 78.984 66.02 79.208 66.02H112.377C112.6 66.02 112.781 66.201 112.781 66.425C112.781 66.648 112.6 66.829 112.377 66.829Z" fill="#111111"/>
<path d="M95.792 83.412C95.569 83.412 95.387 83.231 95.387 83.007V49.842C95.387 49.618 95.568 49.437 95.792 49.437C96.016 49.437 96.197 49.618 96.197 49.842V83.007C96.197 83.231 96.016 83.412 95.792 83.412Z" fill="#111111"/>
<path d="M95.7921 83.412C91.0561 83.412 87.2041 75.791 87.2041 66.425C87.2041 57.058 91.0561 49.438 95.7921 49.438C100.528 49.438 104.38 57.058 104.38 66.425C104.38 75.791 100.528 83.412 95.7921 83.412ZM95.7921 50.246C91.5021 50.246 88.0131 57.504 88.0131 66.425C88.0131 75.345 91.5021 82.603 95.7921 82.603C100.081 82.603 103.571 75.345 103.571 66.425C103.571 57.504 100.081 50.246 95.7921 50.246Z" fill="#111111"/>
<path d="M95.7921 59.083C91.5001 59.083 87.4011 57.476 84.2501 54.557C84.1681 54.48 84.1211 54.373 84.1211 54.26C84.1211 54.147 84.1681 54.04 84.2501 53.963C87.4011 51.045 91.5001 49.438 95.7921 49.438C100.084 49.438 104.183 51.045 107.333 53.964C107.416 54.041 107.463 54.148 107.463 54.261C107.463 54.373 107.416 54.481 107.333 54.557C104.183 57.476 100.084 59.083 95.7921 59.083ZM85.1301 54.26C88.0831 56.852 91.8531 58.274 95.7921 58.274C99.7311 58.274 103.501 56.852 106.454 54.26C103.501 51.669 99.7321 50.246 95.7921 50.246C91.8521 50.246 88.0831 51.669 85.1301 54.26Z" fill="#111111"/>
<path d="M95.7921 83.4119C91.5001 83.4119 87.4011 81.8039 84.2501 78.8849C84.1681 78.8089 84.1211 78.7009 84.1211 78.5889C84.1211 78.4759 84.1681 78.3689 84.2501 78.2919C87.4011 75.3729 91.5001 73.7649 95.7921 73.7649C100.084 73.7649 104.183 75.3729 107.333 78.2919C107.416 78.3689 107.463 78.4759 107.463 78.5889C107.463 78.7009 107.416 78.8089 107.333 78.8849C104.183 81.8039 100.084 83.4119 95.7921 83.4119ZM85.1301 78.5889C88.0831 81.1809 91.8521 82.6029 95.7921 82.6029C99.7321 82.6029 103.501 81.1809 106.454 78.5889C103.501 75.9969 99.7321 74.5759 95.7921 74.5759C91.8521 74.5759 88.0831 75.9969 85.1301 78.5889Z" fill="#111111"/>
<path d="M112.377 91.5009H79.208C78.985 91.5009 78.803 91.3199 78.803 91.0959C78.803 90.8719 78.984 90.6909 79.208 90.6909H112.377C112.6 90.6909 112.781 90.8719 112.781 91.0959C112.781 91.3199 112.6 91.5009 112.377 91.5009Z" fill="#111111"/>
<path d="M80.623 99.59H79.207C78.984 99.59 78.802 99.409 78.802 99.185C78.802 98.961 78.983 98.78 79.207 98.78H80.623C80.846 98.78 81.028 98.961 81.028 99.185C81.028 99.409 80.847 99.59 80.623 99.59Z" fill="#111111"/>
<path d="M108.202 99.59H105.444C105.221 99.59 105.04 99.409 105.04 99.185C105.04 98.961 105.22 98.78 105.444 98.78H108.202C108.425 98.78 108.607 98.961 108.607 99.185C108.607 99.409 108.426 99.59 108.202 99.59ZM102.687 99.59H99.929C99.706 99.59 99.524 99.409 99.524 99.185C99.524 98.961 99.705 98.78 99.929 98.78H102.687C102.91 98.78 103.092 98.961 103.092 99.185C103.092 99.409 102.91 99.59 102.687 99.59ZM97.1711 99.59H94.413C94.19 99.59 94.008 99.409 94.008 99.185C94.008 98.961 94.189 98.78 94.413 98.78H97.1711C97.3941 98.78 97.576 98.961 97.576 99.185C97.576 99.409 97.3941 99.59 97.1711 99.59ZM91.655 99.59H88.897C88.674 99.59 88.493 99.409 88.493 99.185C88.493 98.961 88.673 98.78 88.897 98.78H91.655C91.878 98.78 92.06 98.961 92.06 99.185C92.06 99.409 91.878 99.59 91.655 99.59ZM86.1391 99.59H83.381C83.158 99.59 82.9771 99.409 82.9771 99.185C82.9771 98.961 83.157 98.78 83.381 98.78H86.1391C86.3621 98.78 86.5441 98.961 86.5441 99.185C86.5441 99.409 86.3631 99.59 86.1391 99.59Z" fill="#111111"/>
<path d="M112.376 99.59H110.96C110.737 99.59 110.555 99.409 110.555 99.185C110.555 98.961 110.736 98.78 110.96 98.78H112.376C112.599 98.78 112.781 98.961 112.781 99.185C112.781 99.409 112.599 99.59 112.376 99.59Z" fill="#111111"/>
<path d="M138.33 94.1979H121.679C121.456 94.1979 121.275 94.0169 121.275 93.7929V58.2009C121.275 57.9779 121.455 57.7969 121.679 57.7969H138.331C140.078 57.7969 141.5 59.2169 141.5 60.9649V91.0299C141.499 92.7769 140.078 94.1979 138.33 94.1979ZM122.083 93.3889H138.33C139.631 93.3889 140.69 92.3309 140.69 91.0299V60.9649C140.69 59.6639 139.631 58.6049 138.33 58.6049H122.083V93.3889Z" fill="#111111"/>
<path d="M132.466 68.987H121.679C121.456 68.987 121.275 68.806 121.275 68.582C121.275 68.359 121.455 68.177 121.679 68.177H132.466C132.689 68.177 132.87 68.358 132.87 68.582C132.87 68.806 132.69 68.987 132.466 68.987Z" fill="#111111"/>
<path d="M136.78 64.8071H121.679C121.456 64.8071 121.275 64.6261 121.275 64.4021C121.275 64.1791 121.455 63.9971 121.679 63.9971H136.78C137.003 63.9971 137.185 64.1781 137.185 64.4021C137.185 64.6261 137.003 64.8071 136.78 64.8071Z" fill="#111111"/>
<path d="M136.78 82.6039H121.679C121.456 82.6039 121.275 82.4229 121.275 82.1989C121.275 81.9759 121.455 81.7939 121.679 81.7939H136.78C137.003 81.7939 137.185 81.9749 137.185 82.1989C137.185 82.4229 137.003 82.6039 136.78 82.6039Z" fill="#111111"/>
<path d="M136.78 86.3791H121.679C121.456 86.3791 121.275 86.1981 121.275 85.9741C121.275 85.7511 121.455 85.5691 121.679 85.5691H136.78C137.003 85.5691 137.185 85.7501 137.185 85.9741C137.185 86.1981 137.003 86.3791 136.78 86.3791Z" fill="#111111"/>
<path d="M132.466 100.399H121.679C121.456 100.399 121.275 100.219 121.275 99.9949V93.7929C121.275 93.5699 121.455 93.3879 121.679 93.3879H135.23C135.453 93.3879 135.634 93.5689 135.634 93.7929V97.2309C135.634 98.9789 134.213 100.399 132.466 100.399ZM122.083 99.5909H132.466C133.766 99.5909 134.825 98.5319 134.825 97.2309V94.1979H122.083V99.5909Z" fill="#111111"/>
<path d="M45.5 147.086C45.5 146.918 45.546 146.784 45.638 146.684C45.73 146.584 45.86 146.534 46.027 146.534H53.985C54.688 146.534 55.351 146.668 55.974 146.936C56.598 147.204 57.143 147.571 57.61 148.039C58.078 148.506 58.447 149.053 58.719 149.68C58.99 150.308 59.126 150.981 59.126 151.7C59.126 152.299 59.032 152.856 58.845 153.372C58.657 153.887 58.391 154.348 58.048 154.756C58.623 155.283 59.078 155.91 59.414 156.637C59.749 157.364 59.917 158.135 59.917 158.95C59.917 159.677 59.777 160.367 59.498 161.018C59.218 161.669 58.841 162.24 58.365 162.731C57.89 163.223 57.335 163.612 56.699 163.9C56.064 164.188 55.395 164.331 54.692 164.331H46.027C45.868 164.331 45.74 164.289 45.644 164.206C45.548 164.122 45.5 163.992 45.5 163.816V147.086ZM55.159 158.771C55.159 158.531 55.114 158.291 55.022 158.052C54.93 157.812 54.802 157.598 54.638 157.41C54.474 157.223 54.279 157.069 54.051 156.949C53.823 156.829 53.577 156.769 53.314 156.769H50.15V160.772H53.314C53.577 160.772 53.821 160.716 54.045 160.604C54.269 160.492 54.464 160.343 54.632 160.155C54.8 159.967 54.93 159.753 55.022 159.514C55.114 159.274 55.159 159.026 55.159 158.771ZM54.524 151.808C54.524 151.568 54.48 151.344 54.392 151.137C54.305 150.929 54.181 150.745 54.021 150.585C53.861 150.425 53.669 150.3 53.446 150.208C53.222 150.116 52.978 150.07 52.715 150.07H50.15V153.545H52.679C52.95 153.545 53.2 153.503 53.428 153.42C53.655 153.336 53.849 153.216 54.009 153.06C54.169 152.904 54.295 152.72 54.386 152.509C54.478 152.297 54.524 152.063 54.524 151.808ZM61.919 145.504C61.919 145.248 61.983 145.032 62.11 144.857C62.238 144.681 62.458 144.593 62.77 144.593H65.706C65.786 144.593 65.87 144.615 65.957 144.659C66.045 144.703 66.127 144.765 66.203 144.845C66.279 144.925 66.343 145.02 66.395 145.132C66.447 145.244 66.473 145.368 66.473 145.504V163.409C66.473 163.712 66.387 163.942 66.215 164.098C66.043 164.253 65.822 164.331 65.55 164.331H62.77C62.458 164.331 62.238 164.253 62.11 164.098C61.983 163.942 61.919 163.712 61.919 163.409V145.504ZM68.882 156.733C68.882 155.998 68.975 155.291 69.163 154.612C69.351 153.933 69.615 153.304 69.954 152.724C70.294 152.145 70.701 151.618 71.177 151.143C71.652 150.667 72.181 150.262 72.765 149.926C73.348 149.591 73.977 149.331 74.652 149.147C75.327 148.963 76.032 148.871 76.767 148.871C77.854 148.871 78.875 149.073 79.829 149.477C80.784 149.88 81.615 150.435 82.322 151.143C83.029 151.85 83.588 152.681 84 153.635C84.411 154.59 84.617 155.623 84.617 156.733C84.617 157.468 84.523 158.173 84.336 158.848C84.148 159.524 83.884 160.153 83.545 160.736C83.205 161.319 82.798 161.849 82.322 162.324C81.847 162.799 81.317 163.207 80.734 163.546C80.151 163.886 79.526 164.148 78.859 164.331C78.191 164.515 77.494 164.607 76.767 164.607C76.032 164.607 75.327 164.515 74.652 164.331C73.977 164.148 73.348 163.886 72.765 163.546C72.181 163.207 71.652 162.799 71.177 162.324C70.701 161.849 70.294 161.319 69.954 160.736C69.615 160.153 69.351 159.524 69.163 158.848C68.975 158.173 68.882 157.468 68.882 156.733ZM73.256 156.733C73.256 157.261 73.338 157.754 73.502 158.213C73.665 158.673 73.897 159.07 74.197 159.406C74.496 159.741 74.86 160.007 75.287 160.203C75.715 160.398 76.196 160.496 76.731 160.496C77.251 160.496 77.72 160.398 78.14 160.203C78.559 160.007 78.915 159.741 79.206 159.406C79.498 159.07 79.722 158.673 79.877 158.213C80.033 157.754 80.111 157.261 80.111 156.733C80.111 156.222 80.033 155.735 79.877 155.271C79.722 154.808 79.498 154.4 79.206 154.049C78.915 153.697 78.559 153.42 78.14 153.216C77.72 153.012 77.251 152.91 76.731 152.91C76.196 152.91 75.715 153.012 75.287 153.216C74.86 153.42 74.496 153.697 74.197 154.049C73.897 154.4 73.665 154.808 73.502 155.271C73.338 155.735 73.256 156.222 73.256 156.733ZM98.028 163.804C98.116 163.532 98.158 163.223 98.154 162.875C98.15 162.528 98.148 162.174 98.148 161.815C97.916 162.062 97.68 162.324 97.44 162.6C97.201 162.875 96.935 163.131 96.644 163.367C96.352 163.602 96.022 163.796 95.655 163.948C95.287 164.1 94.86 164.176 94.372 164.176C93.294 164.176 92.295 163.992 91.376 163.624C90.458 163.257 89.663 162.743 88.991 162.084C88.32 161.425 87.797 160.636 87.422 159.717C87.046 158.799 86.858 157.788 86.858 156.685C86.858 155.591 87.046 154.566 87.422 153.611C87.797 152.657 88.32 151.826 88.991 151.119C89.663 150.411 90.458 149.856 91.376 149.453C92.295 149.049 93.294 148.847 94.372 148.847C94.868 148.847 95.313 148.923 95.709 149.075C96.104 149.227 96.464 149.423 96.787 149.662C97.111 149.902 97.407 150.172 97.674 150.471C97.942 150.771 98.195 151.069 98.435 151.364L98.891 149.938C98.939 149.802 98.982 149.678 99.022 149.567C99.062 149.455 99.114 149.361 99.178 149.285C99.242 149.209 99.324 149.151 99.424 149.111C99.524 149.071 99.654 149.051 99.813 149.051H101.599C101.687 149.051 101.789 149.063 101.905 149.087C102.021 149.111 102.122 149.167 102.21 149.255C102.322 149.343 102.406 149.439 102.462 149.543C102.518 149.646 102.546 149.778 102.546 149.938V162.138C102.546 163.385 102.342 164.495 101.935 165.47C101.527 166.445 100.97 167.268 100.263 167.939C99.556 168.61 98.719 169.121 97.752 169.473C96.785 169.824 95.747 170 94.636 170C94.205 170 93.741 169.962 93.246 169.886C92.751 169.81 92.257 169.696 91.766 169.545C91.274 169.393 90.799 169.199 90.34 168.963C89.88 168.728 89.475 168.454 89.123 168.142C89.027 168.07 88.944 167.987 88.872 167.891C88.8 167.795 88.75 167.687 88.722 167.567C88.694 167.447 88.694 167.317 88.722 167.178C88.75 167.038 88.816 166.892 88.92 166.74L90.058 165.17C90.266 164.947 90.462 164.827 90.645 164.811C90.829 164.795 91.061 164.891 91.34 165.098C91.54 165.29 91.77 165.444 92.03 165.56C92.289 165.676 92.557 165.767 92.832 165.835C93.108 165.903 93.38 165.947 93.647 165.967C93.915 165.987 94.157 165.997 94.372 165.997C94.732 165.997 95.108 165.949 95.499 165.853C95.89 165.757 96.256 165.616 96.596 165.428C96.935 165.24 97.235 165.01 97.494 164.739C97.754 164.467 97.932 164.156 98.028 163.804ZM91.173 156.685C91.173 157.221 91.255 157.718 91.418 158.177C91.582 158.637 91.816 159.034 92.119 159.37C92.423 159.705 92.789 159.969 93.216 160.161C93.643 160.353 94.117 160.448 94.636 160.448C95.147 160.448 95.629 160.359 96.08 160.179C96.532 159.999 96.925 159.749 97.261 159.43C97.596 159.11 97.866 158.735 98.07 158.303C98.273 157.872 98.387 157.404 98.411 156.901V156.506C98.387 156.018 98.273 155.557 98.07 155.121C97.866 154.686 97.596 154.302 97.261 153.971C96.925 153.639 96.532 153.376 96.08 153.18C95.629 152.984 95.147 152.886 94.636 152.886C94.117 152.886 93.643 152.988 93.216 153.192C92.789 153.396 92.423 153.669 92.119 154.013C91.816 154.356 91.582 154.76 91.418 155.223C91.255 155.687 91.173 156.174 91.173 156.685ZM108.155 158.591C108.29 158.703 108.464 158.852 108.676 159.04C108.888 159.228 109.129 159.414 109.401 159.598C109.808 159.869 110.212 160.081 110.611 160.233C111.011 160.384 111.43 160.46 111.87 160.46C112.277 160.46 112.619 160.414 112.894 160.323C113.17 160.231 113.388 160.109 113.548 159.957C113.707 159.805 113.821 159.629 113.889 159.43C113.957 159.23 113.991 159.018 113.991 158.795C113.991 158.547 113.897 158.325 113.709 158.129C113.522 157.934 113.292 157.76 113.02 157.608C112.749 157.456 112.465 157.326 112.169 157.219C111.874 157.111 111.618 157.021 111.402 156.949C110.444 156.613 109.605 156.252 108.886 155.864C108.167 155.477 107.567 155.045 107.088 154.57C106.609 154.095 106.249 153.571 106.009 153C105.77 152.429 105.65 151.792 105.65 151.089C105.65 150.346 105.8 149.67 106.099 149.063C106.399 148.456 106.826 147.937 107.382 147.505C107.937 147.074 108.606 146.74 109.389 146.505C110.172 146.269 111.047 146.151 112.014 146.151C112.741 146.151 113.438 146.233 114.105 146.397C114.772 146.56 115.429 146.822 116.076 147.182C116.348 147.341 116.606 147.507 116.849 147.679C117.093 147.851 117.307 148.017 117.49 148.176C117.674 148.336 117.82 148.488 117.928 148.632C118.036 148.776 118.09 148.899 118.09 149.003C118.09 149.107 118.064 149.203 118.012 149.291C117.96 149.379 117.882 149.479 117.778 149.591L115.944 151.544C115.809 151.68 115.673 151.748 115.537 151.748C115.425 151.748 115.323 151.716 115.231 151.652C115.139 151.588 115.038 151.508 114.926 151.412L114.818 151.316C114.658 151.18 114.48 151.041 114.285 150.897C114.089 150.753 113.879 150.623 113.655 150.507C113.432 150.391 113.196 150.296 112.948 150.22C112.701 150.144 112.449 150.106 112.193 150.106C111.93 150.106 111.682 150.128 111.45 150.172C111.219 150.216 111.015 150.286 110.839 150.381C110.663 150.477 110.523 150.603 110.42 150.759C110.316 150.915 110.264 151.105 110.264 151.328C110.264 151.552 110.32 151.746 110.432 151.91C110.543 152.073 110.711 152.225 110.935 152.365C111.159 152.505 111.436 152.637 111.768 152.76C112.099 152.884 112.485 153.018 112.924 153.162C113.771 153.442 114.552 153.735 115.267 154.043C115.982 154.35 116.6 154.714 117.119 155.133C117.638 155.553 118.044 156.054 118.335 156.637C118.627 157.221 118.773 157.928 118.773 158.759C118.773 159.637 118.593 160.434 118.233 161.149C117.874 161.865 117.381 162.474 116.753 162.977C116.126 163.48 115.389 163.87 114.542 164.146C113.695 164.421 112.785 164.559 111.81 164.559C110.891 164.559 109.988 164.395 109.101 164.068C108.214 163.74 107.388 163.301 106.621 162.749C106.301 162.518 106.031 162.29 105.812 162.066C105.592 161.843 105.418 161.663 105.29 161.527L105.254 161.491C105.246 161.475 105.238 161.465 105.23 161.461C105.222 161.457 105.214 161.451 105.206 161.443C105.198 161.427 105.19 161.417 105.182 161.413C105.174 161.409 105.166 161.403 105.158 161.395C104.975 161.195 104.883 161.036 104.883 160.916C104.883 160.78 104.975 160.628 105.158 160.46L107.232 158.483C107.4 158.363 107.535 158.303 107.639 158.303C107.711 158.303 107.787 158.327 107.867 158.375C107.947 158.423 108.043 158.495 108.155 158.591ZM121.457 149.255C121.561 149.167 121.669 149.111 121.781 149.087C121.893 149.063 122.001 149.051 122.104 149.051H123.914C124.066 149.051 124.192 149.075 124.292 149.123C124.391 149.171 124.473 149.237 124.537 149.321C124.601 149.405 124.655 149.501 124.699 149.608C124.743 149.716 124.785 149.834 124.825 149.962L125.328 151.412C125.552 151.125 125.778 150.831 126.005 150.531C126.233 150.232 126.503 149.96 126.814 149.716C127.126 149.473 127.497 149.271 127.929 149.111C128.36 148.951 128.888 148.871 129.511 148.871C130.605 148.871 131.614 149.073 132.537 149.477C133.46 149.88 134.255 150.435 134.922 151.143C135.589 151.85 136.11 152.681 136.486 153.635C136.861 154.59 137.049 155.623 137.049 156.733C137.049 157.836 136.861 158.866 136.486 159.825C136.11 160.784 135.589 161.617 134.922 162.324C134.255 163.031 133.46 163.588 132.537 163.996C131.614 164.403 130.605 164.607 129.511 164.607C128.991 164.607 128.544 164.545 128.169 164.421C127.793 164.297 127.459 164.136 127.168 163.936C126.876 163.736 126.619 163.516 126.395 163.277C126.171 163.037 125.951 162.797 125.736 162.558V168.142C125.736 168.382 125.664 168.586 125.52 168.754C125.376 168.921 125.152 169.005 124.849 169.005H122.104C122.009 169.005 121.905 168.985 121.793 168.945C121.681 168.905 121.577 168.849 121.481 168.778C121.385 168.706 121.305 168.616 121.242 168.508C121.178 168.4 121.146 168.278 121.146 168.142V149.938C121.146 149.778 121.176 149.646 121.236 149.543C121.295 149.439 121.369 149.343 121.457 149.255ZM132.651 156.733C132.651 156.222 132.567 155.737 132.399 155.277C132.231 154.818 131.996 154.416 131.692 154.073C131.388 153.729 131.025 153.457 130.601 153.258C130.178 153.058 129.711 152.958 129.199 152.958C128.696 152.958 128.218 153.052 127.767 153.24C127.316 153.428 126.92 153.683 126.581 154.007C126.241 154.33 125.965 154.712 125.754 155.151C125.542 155.591 125.424 156.058 125.4 156.553V156.733C125.4 157.261 125.5 157.756 125.7 158.219C125.899 158.683 126.171 159.084 126.515 159.424C126.858 159.763 127.262 160.033 127.725 160.233C128.188 160.432 128.68 160.532 129.199 160.532C129.711 160.532 130.178 160.432 130.601 160.233C131.025 160.033 131.388 159.763 131.692 159.424C131.996 159.084 132.231 158.683 132.399 158.219C132.567 157.756 132.651 157.261 132.651 156.733ZM138.978 156.733C138.978 155.998 139.072 155.291 139.26 154.612C139.448 153.933 139.712 153.304 140.051 152.724C140.391 152.145 140.798 151.618 141.273 151.143C141.749 150.667 142.278 150.262 142.861 149.926C143.445 149.591 144.074 149.331 144.749 149.147C145.424 148.963 146.129 148.871 146.864 148.871C147.951 148.871 148.971 149.073 149.926 149.477C150.881 149.88 151.712 150.435 152.419 151.143C153.126 151.85 153.685 152.681 154.097 153.635C154.508 154.59 154.714 155.623 154.714 156.733C154.714 157.468 154.62 158.173 154.432 158.848C154.245 159.524 153.981 160.153 153.641 160.736C153.302 161.319 152.894 161.849 152.419 162.324C151.944 162.799 151.414 163.207 150.831 163.546C150.248 163.886 149.623 164.148 148.956 164.331C148.288 164.515 147.591 164.607 146.864 164.607C146.129 164.607 145.424 164.515 144.749 164.331C144.074 164.148 143.445 163.886 142.861 163.546C142.278 163.207 141.749 162.799 141.273 162.324C140.798 161.849 140.391 161.319 140.051 160.736C139.712 160.153 139.448 159.524 139.26 158.848C139.072 158.173 138.978 157.468 138.978 156.733ZM143.353 156.733C143.353 157.261 143.435 157.754 143.598 158.213C143.762 158.673 143.994 159.07 144.294 159.406C144.593 159.741 144.957 160.007 145.384 160.203C145.812 160.398 146.293 160.496 146.828 160.496C147.348 160.496 147.817 160.398 148.236 160.203C148.656 160.007 149.011 159.741 149.303 159.406C149.595 159.07 149.818 158.673 149.974 158.213C150.13 157.754 150.208 157.261 150.208 156.733C150.208 156.222 150.13 155.735 149.974 155.271C149.818 154.808 149.595 154.4 149.303 154.049C149.011 153.697 148.656 153.42 148.236 153.216C147.817 153.012 147.348 152.91 146.828 152.91C146.293 152.91 145.812 153.012 145.384 153.216C144.957 153.42 144.593 153.697 144.294 154.049C143.994 154.4 143.762 154.808 143.598 155.271C143.435 155.735 143.353 156.222 143.353 156.733ZM158.022 146.738C158.022 146.491 158.104 146.305 158.267 146.181C158.431 146.057 158.665 145.939 158.968 145.827L161.689 144.881C161.729 144.873 161.767 144.869 161.803 144.869H161.905C162.2 144.869 162.398 144.955 162.498 145.126C162.598 145.298 162.648 145.524 162.648 145.803L162.636 149.579H164.637C164.893 149.579 165.101 149.654 165.26 149.806C165.42 149.958 165.5 150.186 165.5 150.489V152.802C165.5 153.138 165.42 153.384 165.26 153.539C165.101 153.695 164.893 153.773 164.637 153.773H162.636L162.648 163.409C162.648 163.712 162.56 163.942 162.384 164.098C162.208 164.253 161.965 164.331 161.653 164.331H158.945C158.329 164.331 158.022 164.024 158.022 163.409L158.01 153.773H157.135C156.52 153.773 156.212 153.45 156.212 152.802V150.489C156.212 149.882 156.52 149.579 157.135 149.579H158.01L158.022 146.738Z" fill="#111111"/>
</svg>
